<?xml version="1.0" encoding="UTF-8"?>
<svg version="1.1" xmlns="http://www.w3.org/2000/svg" width="1280" height="720">
<path d="M0 0 C1.92295898 -0.0309375 1.92295898 -0.0309375 3.88476562 -0.0625 C23.67975927 -0.1424394 40.84791925 4.88054655 55.25 18.6875 C64.4375 28.20079787 64.4375 28.20079787 64.4375 33.25 C63.71159668 33.56751221 62.98569336 33.88502441 62.23779297 34.2121582 C58.92865589 35.6606652 55.62057081 37.11155965 52.3125 38.5625 C51.17039062 39.06201172 50.02828125 39.56152344 48.8515625 40.07617188 C47.74296875 40.56279297 46.634375 41.04941406 45.4921875 41.55078125 C44.47624512 41.99591064 43.46030273 42.44104004 42.41357422 42.8996582 C40.31225647 43.8530945 38.23726765 44.86560769 36.18408203 45.91870117 C33.4375 47.25 33.4375 47.25 31.4375 47.25 C30.385625 45.6721875 30.385625 45.6721875 29.3125 44.0625 C23.81515839 36.12901866 15.11155658 33.54416802 6 31.77734375 C-1.61506714 30.71562766 -10.65298476 30.89646639 -17.1875 35.375 C-17.97125 35.99375 -18.755 36.6125 -19.5625 37.25 C-20.2225 37.25 -20.8825 37.25 -21.5625 37.25 C-26.19130142 46.40335055 -29.83635341 54.69528142 -26.7265625 65.02734375 C-25.76299129 67.49423094 -24.72447989 69.87090978 -23.5625 72.25 C-23.2325 72.9821875 -22.9025 73.714375 -22.5625 74.46875 C-21.08330142 77.10357247 -19.4080659 77.32209807 -16.5625 78.25 C-15.24957323 78.76975658 -13.9371037 79.29066908 -12.625 79.8125 C-1.99910977 83.73042601 8.84065963 82.96188759 19.4375 79.25 C25.36830383 76.39282443 28.37443201 71.93855484 31.4375 66.25 C35.44834361 66.87397018 38.6510781 68.15448401 42.2890625 69.9375 C43.38734375 70.47117187 44.485625 71.00484375 45.6171875 71.5546875 C46.75414062 72.11414063 47.89109375 72.67359375 49.0625 73.25 C51.32478784 74.3556677 53.58777646 75.45990303 55.8515625 76.5625 C57.35130615 77.29919922 57.35130615 77.29919922 58.88134766 78.05078125 C61.46821398 79.32504227 61.46821398 79.32504227 64.4375 80.25 C61.98000059 89.83424769 55.5094069 97.73007481 47.4375 103.25 C24.54803477 115.9642537 -3.4318943 117.22632159 -28.5625 111.25 C-36.59221599 108.92039104 -43.31186968 105.82151527 -49.5625 100.25 C-50.15417969 99.77304687 -50.74585938 99.29609375 -51.35546875 98.8046875 C-59.68281645 91.48838643 -64.94465409 79.34732587 -65.77954102 68.40551758 C-66.50618526 49.26358954 -65.68239338 31.75747106 -52.30859375 16.71484375 C-37.65091382 2.62182565 -19.50138929 0.07681493 0 0 Z " fill="#000000" transform="translate(402.5625,304.75)"></path>
<path d="M0 0 C18.81 0 37.62 0 57 0 C63.85687135 16.57077242 70.4169546 33.21411422 76.76123047 49.98577881 C82.51759927 65.19997773 88.43458428 80.34466743 94.47949219 95.4465332 C94.78469788 96.21258377 95.08990356 96.97863434 95.40435791 97.76789856 C95.97380795 99.19712224 96.54603776 100.62524265 97.121521 102.05204773 C99 106.77446381 99 106.77446381 99 109 C85.8 109 72.6 109 59 109 C57.081875 103.245625 57.081875 103.245625 55.125 97.375 C48.35092006 77.43507157 40.4806439 57.90169865 32.72070312 38.33007812 C32.26932983 37.18744507 32.26932983 37.18744507 31.80883789 36.02172852 C31.14799172 34.36991231 30.45971511 32.7290929 29.76367188 31.09179688 C29 29 29 29 29 26 C28.34 26 27.68 26 27 26 C26.87117432 26.55042969 26.74234863 27.10085938 26.60961914 27.66796875 C23.9893181 38.03267046 20.12318774 47.9796122 16.4375 58 C15.71706142 59.96774314 14.99692976 61.93559867 14.27709961 63.90356445 C12.51230968 68.72461608 10.74190664 73.54358318 8.96960449 78.36187744 C7.81181808 81.51200976 6.6580801 84.66361258 5.50480652 87.81539917 C4.36048637 90.94058178 3.21162153 94.06407947 2.0625 97.1875 C1.65636475 98.29544922 1.25022949 99.40339844 0.83178711 100.54492188 C0.46577393 101.53427734 0.09976074 102.52363281 -0.27734375 103.54296875 C-0.74515259 104.8117688 -0.74515259 104.8117688 -1.22241211 106.10620117 C-2 108 -2 108 -3 109 C-5.8116338 109.08861992 -8.59858255 109.11522355 -11.41015625 109.09765625 C-12.25219101 109.0962413 -13.09422577 109.09482635 -13.96177673 109.09336853 C-16.66205335 109.08775263 -19.36224828 109.07519748 -22.0625 109.0625 C-23.88867068 109.05748705 -25.71484266 109.05292379 -27.54101562 109.04882812 C-32.02737542 109.03777804 -36.51367384 109.02050279 -41 109 C-40.38109709 104.11791199 -38.9277155 99.81259998 -37.10546875 95.2734375 C-36.65609703 94.1322773 -36.65609703 94.1322773 -36.19764709 92.96806335 C-35.54356792 91.30854154 -34.88688216 89.65004525 -34.22790527 87.99246216 C-32.41984705 83.44373091 -30.6312053 78.88735764 -28.83984375 74.33203125 C-28.45631744 73.3582402 -28.07279114 72.38444916 -27.67764282 71.38114929 C-22.34873074 57.83313584 -17.1515183 44.23419566 -11.93783569 30.64154053 C-11.09254911 28.43808105 -10.24702051 26.2347144 -9.40122986 24.03144836 C-8.63138103 22.02584505 -7.86217195 20.019996 -7.09376526 18.01383972 C-6.5702372 16.6497271 -6.5702372 16.6497271 -6.03613281 15.25805664 C-5.58889862 14.09120079 -5.58889862 14.09120079 -5.13262939 12.90077209 C-3.44931771 8.58965003 -1.71883327 4.29708318 0 0 Z " fill="#000000" transform="translate(724,308)"></path>
<path d="M0 0 C13.53 0 27.06 0 41 0 C39.06268492 4.84328771 37.01625944 7.35008538 33.375 10.8125 C30.714375 13.3803125 30.714375 13.3803125 28 16 C36.25 16.33 44.5 16.66 53 17 C53 25.91 53 34.82 53 44 C38.375 44 38.375 44 33.1875 43.5 C32.19105469 43.4071875 31.19460938 43.314375 30.16796875 43.21875 C29.45253906 43.1465625 28.73710938 43.074375 28 43 C28.08190624 46.16764449 28.19464591 49.33350532 28.3125 52.5 C28.34633789 53.8303125 28.34633789 53.8303125 28.38085938 55.1875 C28.61836115 61.0602711 29.35008689 65.71187317 32 71 C35.77557311 74.31271826 39.40363232 74.45811366 44.3125 74.6875 C46.519375 74.790625 48.72625 74.89375 51 75 C50.67 82.92 50.34 90.84 50 99 C42.94064388 100.5687458 37.62753311 101.35597414 30.625 101.3125 C29.70323975 101.30831055 28.78147949 101.30412109 27.83178711 101.29980469 C16.84136874 101.1173911 8.37535337 99.25034515 0.3125 91.375 C-6.50622279 82.47769731 -5.36262442 70.95075283 -5.1875 60.375 C-5.17242196 58.78256478 -5.15873909 57.1901157 -5.14648438 55.59765625 C-5.11630866 51.73114176 -5.05755118 47.86658662 -5 44 C-9.95 44 -14.9 44 -20 44 C-20 35.09 -20 26.18 -20 17 C-16.7 16.01 -13.4 15.02 -10 14 C-3.86228757 10.59015976 -3.55007954 7.10015908 0 0 Z " fill="#000000" transform="translate(890,318)"></path>
<path d="M0 0 C13.53 0 27.06 0 41 0 C39.06268492 4.84328771 37.01625944 7.35008538 33.375 10.8125 C30.714375 13.3803125 30.714375 13.3803125 28 16 C36.25 16.33 44.5 16.66 53 17 C53 25.91 53 34.82 53 44 C38.375 44 38.375 44 33.1875 43.5 C32.19105469 43.4071875 31.19460938 43.314375 30.16796875 43.21875 C29.45253906 43.1465625 28.73710938 43.074375 28 43 C28.08190624 46.16764449 28.19464591 49.33350532 28.3125 52.5 C28.34633789 53.8303125 28.34633789 53.8303125 28.38085938 55.1875 C28.61836115 61.0602711 29.35008689 65.71187317 32 71 C35.77557311 74.31271826 39.40363232 74.45811366 44.3125 74.6875 C46.519375 74.790625 48.72625 74.89375 51 75 C50.67 82.92 50.34 90.84 50 99 C42.94064388 100.5687458 37.62753311 101.35597414 30.625 101.3125 C29.70323975 101.30831055 28.78147949 101.30412109 27.83178711 101.29980469 C16.84136874 101.1173911 8.37535337 99.25034515 0.3125 91.375 C-6.50622279 82.47769731 -5.36262442 70.95075283 -5.1875 60.375 C-5.17242196 58.78256478 -5.15873909 57.1901157 -5.14648438 55.59765625 C-5.11630866 51.73114176 -5.05755118 47.86658662 -5 44 C-9.95 44 -14.9 44 -20 44 C-20 35.09 -20 26.18 -20 17 C-16.7 16.01 -13.4 15.02 -10 14 C-3.86228757 10.59015976 -3.55007954 7.10015908 0 0 Z " fill="#000000" transform="translate(493,318)"></path>
<path d="M0 0 C11.88 0 23.76 0 36 0 C36 38.61 36 77.22 36 117 C24.12 117 12.24 117 0 117 C0 78.39 0 39.78 0 0 Z " fill="#000000" transform="translate(828,300)"></path>
<path d="M0 0 C11.88 0 23.76 0 36 0 C36 38.61 36 77.22 36 117 C24.12 117 12.24 117 0 117 C0 78.39 0 39.78 0 0 Z " fill="#000000" transform="translate(642,300)"></path>
<path d="M0 0 C-3.25072046 30.50144092 -3.25072046 30.50144092 -5 34 C-5.9178125 33.7834375 -6.835625 33.566875 -7.78125 33.34375 C-19.02936838 30.52373486 -19.02936838 30.52373486 -30.25 32.125 C-34.38582949 34.94488374 -36.43164671 38.29494012 -38 43 C-38.15434158 45.94717173 -38.2575603 48.87498865 -38.31640625 51.82421875 C-38.33718735 52.68561966 -38.35796844 53.54702057 -38.37937927 54.43452454 C-38.44474909 57.18543544 -38.50370132 59.93644156 -38.5625 62.6875 C-38.60569717 64.55274421 -38.64931185 66.4179788 -38.69335938 68.28320312 C-38.80120316 72.85537258 -38.90036991 77.42761462 -39 82 C-50.88 82 -62.76 82 -75 82 C-75 54.94 -75 27.88 -75 0 C-64.77 0 -54.54 0 -44 0 C-42.68 5.94 -41.36 11.88 -40 18 C-39.01 16.288125 -38.02 14.57625 -37 12.8125 C-31.76247216 4.65243162 -26.03292497 1.77593997 -16.74609375 -0.50390625 C-10.93874756 -1.55302853 -5.74202338 -1.24043711 0 0 Z " fill="#000000" transform="translate(630,335)"></path>
</svg>